<?xml version="1.0" encoding="UTF-8" standalone="no"?>
<!-- Created with Inkscape (http://www.inkscape.org/) -->

<svg
   xmlns:dc="http://purl.org/dc/elements/1.1/"
   xmlns:cc="http://creativecommons.org/ns#"
   xmlns:rdf="http://www.w3.org/1999/02/22-rdf-syntax-ns#"
   xmlns:svg="http://www.w3.org/2000/svg"
   xmlns="http://www.w3.org/2000/svg"
   xmlns:sodipodi="http://sodipodi.sourceforge.net/DTD/sodipodi-0.dtd"
   xmlns:inkscape="http://www.inkscape.org/namespaces/inkscape"
   width="256"
   height="256"
   viewBox="0 0 67.733332 67.733335"
   version="1.1"
   id="svg8"
   inkscape:version="0.92.5 (2060ec1f9f, 2020-04-08)"
   sodipodi:docname="icon.svg"
   inkscape:export-filename="/home/tomsneddon/Downloads/wordpress/Plugins_ori_backup/toms-product-video/assets/icons/icon-128x128.png"
   inkscape:export-xdpi="48.000004"
   inkscape:export-ydpi="48.000004"
   enable-background="new">
  <defs
     id="defs2">
    <inkscape:path-effect
       effect="bspline"
       id="path-effect68"
       is_visible="true"
       weight="33.333333"
       steps="2"
       helper_size="0"
       apply_no_weight="true"
       apply_with_weight="true"
       only_selected="false" />
    <clipPath
       id="ytp-svg-volume-animation-mask">
      <path
         d="m 14.35,-0.14 -5.86,5.86 20.73,20.78 5.86,-5.91 z"
         id="path910" />
      <path
         d="M 7.07,6.87 -1.11,15.33 19.61,36.11 27.80,27.60 z"
         id="path912" />
      <path
         class="ytp-svg-volume-animation-mover"
         d="M 9.09,5.20 6.47,7.88 26.82,28.77 29.66,25.99 z"
         transform="translate(0, 0)"
         id="path914" />
    </clipPath>
    <clipPath
       id="ytp-svg-volume-animation-slash-mask">
      <path
         class="ytp-svg-volume-animation-mover"
         d="m -11.45,-15.55 -4.44,4.51 20.45,20.94 4.55,-4.66 z"
         transform="translate(0, 0)"
         id="path917" />
    </clipPath>
    <clipPath
       id="ytp-svg-volume-animation-mask-3">
      <path
         d="m 14.35,-0.14 -5.86,5.86 20.73,20.78 5.86,-5.91 z"
         id="path910-6" />
      <path
         d="M 7.07,6.87 -1.11,15.33 19.61,36.11 27.80,27.60 z"
         id="path912-7" />
      <path
         class="ytp-svg-volume-animation-mover"
         d="M 9.09,5.20 6.47,7.88 26.82,28.77 29.66,25.99 z"
         transform="translate(0, 0)"
         id="path914-5" />
    </clipPath>
    <clipPath
       id="ytp-svg-volume-animation-slash-mask-3">
      <path
         class="ytp-svg-volume-animation-mover"
         d="m -11.45,-15.55 -4.44,4.51 20.45,20.94 4.55,-4.66 z"
         transform="translate(0, 0)"
         id="path917-5" />
    </clipPath>
  </defs>
  <sodipodi:namedview
     id="base"
     pagecolor="#ffffff"
     bordercolor="#666666"
     borderopacity="1.0"
     inkscape:pageopacity="0.0"
     inkscape:pageshadow="2"
     inkscape:zoom="1"
     inkscape:cx="-138"
     inkscape:cy="196.5"
     inkscape:document-units="mm"
     inkscape:current-layer="layer1"
     showgrid="false"
     units="px"
     inkscape:window-width="1920"
     inkscape:window-height="1009"
     inkscape:window-x="0"
     inkscape:window-y="0"
     inkscape:window-maximized="1"
     inkscape:pagecheckerboard="0" />
  <metadata
     id="metadata5">
    <rdf:RDF>
      <cc:Work
         rdf:about="">
        <dc:format>image/svg+xml</dc:format>
        <dc:type
           rdf:resource="http://purl.org/dc/dcmitype/StillImage" />
      </cc:Work>
    </rdf:RDF>
  </metadata>
  <g
     inkscape:label="Layer 1"
     inkscape:groupmode="layer"
     id="layer1"
     transform="translate(0,-229.26665)">
    <path
       d="m 15.12421,261.08322 a 5.8690409,5.8690409 0 0 0 -1.143712,3.73175 l -8.8e-4,5e-5 0.200313,3.58486 c 4.96e-4,0.009 0.0082,0.0157 0.01738,0.0152 l 2.7608,-0.15427 a 0.01647273,0.01647273 0 0 0 0.01556,-0.0173 l -0.02523,-0.45152 a 3.9462874,3.9462874 0 0 1 -1.596945,-2.94875 3.9462874,3.9462874 0 0 1 0.0077,-0.49773 3.9462874,3.9462874 0 0 1 0.01459,-0.13345 3.9462874,3.9462874 0 0 1 0.05789,-0.37628 3.9462874,3.9462874 0 0 1 0.02643,-0.1214 3.9462874,3.9462874 0 0 1 0.134154,-0.45006 3.9462874,3.9462874 0 0 1 0.0062,-0.0186 3.9462874,3.9462874 0 0 1 0.222242,-0.48848 l -5.8e-5,-0.001 a 3.9462874,3.9462874 0 0 1 2.094752,-1.82896 z"
       p-id="1453"
       id="path2"
       inkscape:connector-curvature="0"
       style="stroke-width:0.01044399" />
    <path
       d="m 13.026918,259.39772 m 0.424424,-0.0237 8.041526,-0.44934 q 0.424425,-0.0237 0.448141,0.40071 l 0.04041,0.72319 q 0.02372,0.42443 -0.400709,0.44814 l -8.041526,0.44934 q -0.424424,0.0237 -0.44814,-0.4007 l -0.04041,-0.7232 q -0.02372,-0.42443 0.400708,-0.44814 z"
       p-id="1454"
       id="path4"
       inkscape:connector-curvature="0"
       style="stroke-width:0.01044399" />
    <path
       d="m 20.800289,267.68115 a 0.7025324,0.7025324 0 0 1 -0.957048,-0.004 l -2.830911,-2.93573 a 0.7025324,0.7025324 0 0 1 0.341687,-1.13767 l 0.287149,-0.0877 -0.0091,-0.009 2.646848,-0.82024 2.646293,-0.82028 -0.915634,2.61555 -0.915647,2.61501 -0.0027,-0.003 -0.09785,0.28403 a 0.7025324,0.7025324 0 0 1 -0.193109,0.30353 z m -0.06872,-2.06988 a 0.30310018,0.30310018 0 0 0 0.08305,-0.13108 l 0.04215,-0.1229 0.0017,0.002 0.394829,-1.12806 0.395124,-1.12889 -1.141941,0.35442 -1.141686,0.35356 0.0036,0.004 -0.12435,0.0377 a 0.30310018,0.30310018 0 0 0 -0.146819,0.49137 l 1.221087,1.2663 a 0.30310018,0.30310018 0 0 0 0.413066,0.002 z"
       p-id="1455"
       id="path6"
       inkscape:connector-curvature="0"
       style="fill:#ff0000;stroke-width:0.01044399" />
    <path
       d="m 24.81874,261.27519 -0.76808,1.30184 a 3.8909428,3.8909428 0 0 1 0.538885,1.76057 3.8909428,3.8909428 0 0 1 -0.710024,2.46573 l 0.04954,0.88654 a 0.01636424,0.01636424 0 0 0 0.0174,0.0156 l 0.121963,-0.007 a 3.0613524,3.8501633 86.801773 0 0 1.697472,-1.27228 l -0.200686,-3.59153 0.592831,-1.63445 z m 2.194723,-0.12263 -0.592831,1.63445 0.619546,-0.0346 7e-5,10e-4 1.478928,-0.0826 -9e-5,-0.002 0.881711,-0.0493 c -0.221473,-0.53693 -0.246865,-1.06128 0.05468,-1.59895 9.83e-4,-0.002 0.0023,-0.004 0.0033,-0.005 z"
       p-id="1456"
       id="path8"
       inkscape:connector-curvature="0"
       style="stroke-width:0.01044399" />
    <path
       d="m 27.072281,263.32733 m 0.742426,-0.0415 h 4e-6 q 0.742427,-0.0415 0.783912,0.70094 l 0.06215,1.11231 q 0.04149,0.74242 -0.700942,0.78391 h -4e-6 q -0.742425,0.0415 -0.78391,-0.70094 l -0.06215,-1.11231 q -0.04148,-0.74243 0.700941,-0.78391 z"
       p-id="1457"
       id="path10"
       inkscape:connector-curvature="0"
       style="stroke-width:0.01044399" />
    <path
       d="m 35.275125,259.91292 c -0.195948,-0.36965 -0.812621,-0.92679 -1.463941,-1.05772 -0.651326,-0.13093 -1.337247,0.16439 -2.001165,0.5918 -0.663922,0.42742 -1.305778,0.98689 -1.611852,1.53265 -0.306078,0.54576 -0.276352,1.07774 -0.04555,1.62314 0.230797,0.54539 0.662615,1.10418 1.143695,1.33747 0.481086,0.23328 1.011411,0.14111 1.32381,-0.0395 0.312396,-0.18065 0.406892,-0.44979 0.195498,-0.72477 -0.211396,-0.27496 -0.728707,-0.55574 -0.990061,-0.88147 -0.261345,-0.32573 -0.266699,-0.69829 0.01596,-1.09576 0.282658,-0.39748 0.853285,-0.82075 1.427747,-0.9184 0.57446,-0.0976 1.166981,0.13593 1.572026,0.16019 0.405049,0.0243 0.629789,-0.15794 0.43384,-0.52759 z"
       p-id="1458"
       id="path12"
       inkscape:export-filename="/home/tomsneddon/Downloads/TomS.png"
       inkscape:export-xdpi="96"
       inkscape:export-ydpi="96"
       inkscape:connector-curvature="0"
       style="stroke-width:0.01044399" />
    <path
       d="m 33.789161,262.88007 c -0.189357,0.007 -0.287973,0.19998 -0.284525,0.4916 0.0048,0.40575 0.209677,1.00883 0.08457,1.57794 -0.07839,0.35663 -0.284417,0.70557 -0.528371,0.98123 l 1.476882,0.24115 c 0.356705,-0.55764 0.586435,-1.13165 0.501039,-1.69531 -0.09952,-0.65686 -0.62645,-1.29954 -0.986279,-1.51301 -0.101201,-0.06 -0.189222,-0.0861 -0.263317,-0.0836 z m -3.458952,2.25782 c -0.143803,0.0153 -0.278422,0.11573 -0.388356,0.28637 -0.195432,0.30337 -0.31294,0.82865 -0.103009,1.32037 0.209929,0.49173 0.747379,0.94988 1.281075,1.20659 0.533691,0.2567 1.063594,0.31189 1.623413,0.0324 0.440609,-0.22001 0.899423,-0.6476 1.298632,-1.13294 l -2.084439,-0.34027 c -0.160222,-0.0201 -0.31062,-0.0927 -0.449379,-0.21539 -0.312814,-0.27668 -0.568475,-0.8069 -0.832978,-1.03124 -0.115721,-0.0981 -0.233114,-0.13774 -0.344959,-0.12585 z"
       p-id="1459"
       id="path14"
       inkscape:connector-curvature="0"
       style="stroke-width:0.01044399" />
    <text
       xml:space="preserve"
       style="font-style:normal;font-variant:normal;font-weight:bold;font-stretch:normal;font-size:4.2302475px;line-height:1.25;font-family:sans-serif;-inkscape-font-specification:'sans-serif Bold';letter-spacing:0px;word-spacing:0px;display:inline;fill:#000000;fill-opacity:1;stroke:none;stroke-width:0.06345376"
       x="19.478922"
       y="259.57068"
       id="text2679"
       transform="rotate(-3.1982268)"><tspan
         sodipodi:role="line"
         id="tspan2677"
         style="font-style:normal;font-variant:normal;font-weight:normal;font-stretch:normal;font-size:4.2302475px;font-family:sans-serif;-inkscape-font-specification:sans-serif;stroke-width:0.06345376"
         x="19.478922"
         y="259.57068">®</tspan></text>
    <path
       inkscape:connector-curvature="0"
       id="path341"
       d="M 41.152016,242.74334 5.1660969,243.6208 a 1.2765006,1.2765007 39.403561 0 0 -1.2469524,1.23714 L 2.4753049,293.8229 a 1.2807938,1.2807939 24.62663 0 0 1.3084473,1.31052 l 20.4189088,-0.49816 -10e-4,-0.002 a 1.2765006,1.2765007 39.403561 0 0 -0.0615,-2.54661 l -19.0701539,0.46663 1.3709759,-46.4137 33.563329,-0.82062 1.472261,18.75131 a 128.29664,128.85061 17.370222 0 1 2.557465,-0.0775 l -1.576649,-20.07469 c -0.03919,-0.50695 -0.371658,-0.92381 -0.822172,-1.09347 -0.150175,-0.0566 -0.31329,-0.0853 -0.483174,-0.0811 z"
       style="display:inline;fill:#8056b3;fill-opacity:1;stroke-width:0.06708065"
       inkscape:export-filename="/home/tomsneddon/Downloads/wordpress/Plugins_ori_backup/toms-product-video/assets/icons/icon-256x256.png"
       inkscape:export-xdpi="96.000008"
       inkscape:export-ydpi="96.000008" />
    <path
       inkscape:connector-curvature="0"
       id="path328"
       d="m 13.878004,247.44914 c 0.154153,0.0612 0.323416,0.0921 0.499818,0.0876 l 1.08e-4,0.002 c 0.706847,-0.0172 1.26494,-0.60397 1.247813,-1.30499 l -0.145674,-5.96558 c -0.106389,-4.35345 3.360429,-7.98412 7.729552,-8.09089 4.369118,-0.10679 8.010915,3.35016 8.117301,7.7036 l 0.145675,5.96558 c 0.01736,0.70048 0.603624,1.25959 1.308954,1.24236 0.705374,-0.0172 1.263307,-0.60389 1.246172,-1.30488 l -0.145675,-5.96559 c -0.140658,-5.75846 -4.955134,-10.32862 -10.734844,-10.18736 -5.778292,0.14123 -10.364672,4.94157 -10.223918,10.6998 l 0.145595,5.96394 c 0.01223,0.52945 0.345723,0.97329 0.809155,1.15473 z"
       style="display:inline;fill:#2aae67;stroke-width:0.06708065" />
    <path
       inkscape:connector-curvature="0"
       id="path366"
       d="m 33.937012,243.56125 -2.55704,0.0966 c 0.01339,0.15752 0.02332,0.31638 0.02724,0.47658 l 0.145351,5.9655 c 0.01736,0.70047 0.603597,1.25931 1.308928,1.24208 0.705373,-0.0172 1.263567,-0.60372 1.24643,-1.30471 l -0.145987,-5.96581 c -0.0042,-0.17112 -0.01257,-0.34133 -0.02493,-0.51028 z m -18.376709,0.69327 -2.55704,0.0966 c 1.62e-4,0.0778 -0.0015,0.15513 3.12e-4,0.23339 l 0.145261,5.96393 c 0.01223,0.52945 0.345697,0.97278 0.809129,1.15422 0.154153,0.0612 0.323397,0.0924 0.499799,0.0879 l 1.07e-4,0.002 c 0.706847,-0.0172 1.265136,-0.60377 1.248009,-1.30479 l -0.146006,-5.96582 c -0.0022,-0.0895 -4.4e-4,-0.17799 3.44e-4,-0.26684 z"
       style="display:inline;fill:#2aae67;stroke-width:0.06708065" />
    <path
       id="path369"
       p-id="38395"
       d="m 44.494709,243.20908 7.409312,-1.6771 c 0.301045,-0.0682 0.615047,-0.0134 0.875835,0.14972 l 10.243552,6.46215 c 0.541884,0.34178 0.704029,1.05831 0.362589,1.60194 l -5.732211,9.08642 c -0.171589,0.27199 -0.435591,0.44649 -0.72605,0.51224 -0.290462,0.0657 -0.604231,0.0201 -0.875833,-0.14973 L 45.80836,252.73255 c -0.261229,-0.16476 -0.444085,-0.42508 -0.512252,-0.72603 l -1.677103,-7.40932 c -0.141452,-0.62492 0.250776,-1.24664 0.875714,-1.38812 z m 1.928028,8.54241 c 4e-4,0.002 8.86e-4,0.003 0.0025,0.003 l 10.243554,6.46215 0.0022,0.001 0.0036,-8e-4 0.0014,-0.002 5.732212,-9.08642 0.0014,-0.002 -8e-4,-0.006 -0.0022,-0.001 -10.243143,-6.46041 c -0.0022,-0.001 -0.0022,-0.001 -0.004,-9.7e-4 l -7.411078,1.67751 c -0.0018,4.1e-4 -0.0029,0.005 -0.0029,0.005 z"
       inkscape:connector-curvature="0"
       style="fill:#2aae67;stroke-width:0.01804883" />
    <path
       id="path371"
       p-id="38396"
       d="m 49.760959,245.5701 c 1.244566,-0.28171 2.481566,0.49865 2.763269,1.74323 0.281716,1.24455 -0.498652,2.48155 -1.743219,2.76326 -1.244566,0.28171 -2.481567,-0.49865 -2.763269,-1.74323 -0.281716,-1.24455 0.498652,-2.48155 1.743219,-2.76326 z m 0.76504,3.37986 c 0.621396,-0.14064 1.012264,-0.76022 0.871605,-1.38163 -0.140653,-0.62141 -0.760233,-1.01227 -1.38164,-0.8716 -0.621396,0.14064 -1.012264,0.76022 -0.871605,1.38163 0.140653,0.62141 0.760232,1.01227 1.38164,0.8716 z"
       inkscape:connector-curvature="0"
       style="fill:#2aae67;stroke-width:0.01804883" />
    <path
       inkscape:connector-curvature="0"
       id="path1095"
       d="m 50.080358,264.88452 a 128.29664,128.85061 17.369936 0 0 -21.307711,1.35595 2.5693175,2.5804117 17.370969 0 0 -2.178736,2.14574 67.738254,68.030741 17.370094 0 0 0.25957,24.0635 2.5710105,2.5821119 17.370423 0 0 2.224423,2.09017 128.26784,128.82169 17.370086 0 0 17.066549,0.91466 128.26784,128.82169 17.370086 0 0 17.040418,-1.36922 2.5693175,2.5804117 17.370969 0 0 2.177166,-2.14886 67.768717,68.061336 17.369961 0 0 -0.262459,-24.06182 2.5710105,2.5821119 17.370423 0 0 -2.22442,-2.08856 128.29664,128.85061 17.369936 0 0 -12.794676,-0.90153 z m -9.225349,8.5366 a 1.7602704,1.7678711 17.37003 0 1 0.87913,0.20222 l 0.673828,0.33496 -4.63e-4,-0.009 6.237884,3.05413 6.237884,3.05566 -6.170321,3.21926 -6.170311,3.21933 0.0011,-0.0353 -0.666912,0.35155 a 1.7602704,1.7678711 17.37003 0 1 -2.613102,-1.43082 l -0.110724,-10.26082 a 1.7602704,1.7678711 17.37003 0 1 1.702485,-1.70243 z"
       style="display:inline;opacity:1;fill:#ff0000;stroke-width:0.03975507" />
  </g>
</svg>
